<?xml version="1.0" encoding="UTF-8" standalone="no"?>
<svg
   xmlns:dc="http://purl.org/dc/elements/1.1/"
   xmlns:cc="http://creativecommons.org/ns#"
   xmlns:rdf="http://www.w3.org/1999/02/22-rdf-syntax-ns#"
   xmlns:svg="http://www.w3.org/2000/svg"
   xmlns="http://www.w3.org/2000/svg"
   xmlns:sodipodi="http://sodipodi.sourceforge.net/DTD/sodipodi-0.dtd"
   xmlns:inkscape="http://www.inkscape.org/namespaces/inkscape"
   enable-background="new 0 0 512 512"
   height="512px"
   id="Layer_1"
   version="1.1"
   viewBox="0 0 512 512"
   width="512px"
   xml:space="preserve"
   inkscape:version="0.91 r13725"
   sodipodi:docname="icon.svg"><metadata
     id="metadata15"><rdf:RDF><cc:Work
         rdf:about=""><dc:format>image/svg+xml</dc:format><dc:type
           rdf:resource="http://purl.org/dc/dcmitype/StillImage" /><dc:title></dc:title></cc:Work></rdf:RDF></metadata><defs
     id="defs13" /><sodipodi:namedview
     pagecolor="#ffffff"
     bordercolor="#666666"
     borderopacity="1"
     objecttolerance="10"
     gridtolerance="10"
     guidetolerance="10"
     inkscape:pageopacity="0"
     inkscape:pageshadow="2"
     inkscape:window-width="1325"
     inkscape:window-height="744"
     id="namedview11"
     showgrid="false"
     inkscape:zoom="0.5"
     inkscape:cx="281.55228"
     inkscape:cy="353.54605"
     inkscape:window-x="41"
     inkscape:window-y="24"
     inkscape:window-maximized="1"
     inkscape:current-layer="Layer_1" /><path
     d="M492.879,442.732c0,34.171-27.701,61.872-61.873,61.872H81.263c-34.171,0-61.873-27.701-61.873-61.872  V92.987c0-34.171,27.702-61.873,61.873-61.873h349.743c34.172,0,61.873,27.701,61.873,61.873V442.732z"
     fill="#0A5772"
     id="path3" /><path
     d="M492.879,417.988c0,34.172-27.701,61.873-61.873,61.873H81.263c-34.171,0-61.873-27.701-61.873-61.873  V68.243c0-34.17,27.702-61.872,61.873-61.872h349.743c34.172,0,61.873,27.702,61.873,61.872V417.988z"
     fill="#0083BE"
     id="path5" /><path
     style="opacity:1;fill:#0064a2;fill-opacity:1;stroke:none;stroke-width:1;stroke-linecap:round;stroke-linejoin:round;stroke-miterlimit:4;stroke-dasharray:none;stroke-opacity:1"
     d="M 289.55859 87.960938 L 236.29297 129.21094 L 202.84961 163.75 L 254.94336 215.8418 L 227.98047 242.80664 L 176.32227 191.14844 L 163.00195 204.9043 L 120.94727 251.76367 L 107.5332 302.82617 L 129.28906 364.86914 L 119.44141 376.94727 L 222.35547 479.86133 L 431.00586 479.86133 C 465.17786 479.86133 492.87891 452.16028 492.87891 417.98828 L 492.87891 211.09961 L 389.60742 107.82812 L 376.86523 119.19922 L 289.55859 87.960938 z "
     id="path4199" /><g
     style="fill:#ffffff;fill-rule:evenodd;stroke:none;stroke-width:1"
     id="Page-1"
     transform="matrix(13.482148,-13.482148,13.482148,13.482148,39.143557,296.64947)"><g
       style="fill:#ffffff"
       id="Core"
       transform="translate(-380,-300)"><g
         id="link"
         transform="translate(380,300)"
         style="fill:#ffffff"><path
           inkscape:connector-curvature="0"
           d="M 6,7 14,7 14,5 6,5 6,7 6,7 Z M 1.9,6 C 1.9,3.7 3.7,1.9 6,1.9 L 9,1.9 9,0 6,0 C 2.7,0 0,2.7 0,6 c 0,3.3 2.7,6 6,6 l 3,0 0,-1.9 -3,0 C 3.7,10.1 1.9,8.3 1.9,6 l 0,0 z M 14,0 l -3,0 0,1.9 3,0 c 2.3,0 4.1,1.8 4.1,4.1 0,2.3 -1.8,4.1 -4.1,4.1 l -3,0 0,1.9 3,0 c 3.3,0 6,-2.7 6,-6 0,-3.3 -2.7,-6 -6,-6 l 0,0 z"
           id="Shape"
           style="fill:#ffffff" /></g></g></g></svg>